<?xml version="1.0" standalone="no"?>
<!DOCTYPE svg PUBLIC "-//W3C//DTD SVG 20010904//EN" "http://www.w3.org/TR/2001/REC-SVG-20010904/DTD/svg10.dtd">
<svg version="1.0" xmlns="http://www.w3.org/2000/svg" width="1805.000000pt" height="2757.000000pt" viewBox="0 0 1805.000000 2757.000000" preserveAspectRatio="xMidYMid meet">
	<g transform="translate(0.000000,2757.000000) scale(0.100000,-0.100000)" fill="#9ca3af" stroke="none">
		<path d="M1605 27560 c-431 -28 -822 -211 -1121 -522 -241 -252 -392 -550
-456 -906 l-23 -127 0 -12220 0 -12220 23 -130 c81 -444 314 -825 669 -1092
214 -160 433 -254 753 -320 81 -16 473 -17 7485 -21 5347 -2 7435 0 7525 8
568 50 1055 355 1345 842 94 158 165 348 212 568 17 82 18 544 21 12295 2
8569 0 12242 -8 12316 -58 583 -428 1108 -960 1363 -210 101 -402 151 -639
166 -171 11 -14655 11 -14826 0z m14930 -789 c99 -25 246 -91 322 -142 77 -52
191 -168 246 -249 65 -95 121 -224 144 -331 17 -81 18 -570 18 -12269 0
-11281 -1 -12190 -16 -12255 -45 -191 -141 -358 -282 -491 -104 -98 -211 -162
-353 -211 l-109 -38 -7445 -3 c-6791 -2 -7452 -1 -7525 14 -381 76 -679 384
-744 769 -9 54 -11 2917 -9 12265 l3 12195 23 75 c120 386 444 655 831 690 47
4 3398 7 7446 6 l7360 -1 90 -24z" />
		<path d="M2815 24923 c-156 -12 -278 -44 -398 -104 -336 -167 -550 -476 -587
-848 -17 -170 -9 -14280 9 -14346 35 -137 56 -198 98 -280 162 -325 480 -541
848 -575 142 -13 8528 -13 8667 0 253 24 463 122 645 301 155 152 252 333 295
549 11 53 13 1386 13 7235 l0 7170 -24 95 c-97 389 -390 681 -781 778 l-105
27 -4320 1 c-2376 0 -4338 -1 -4360 -3z m8690 -497 c102 -30 175 -75 255 -156
86 -86 133 -170 156 -279 12 -61 14 -985 12 -7178 l-3 -7108 -23 -65 c-67
-186 -220 -327 -412 -382 -36 -10 -887 -13 -4310 -15 -2684 -2 -4297 0 -4352
6 -247 28 -442 192 -504 426 -20 75 -20 14265 0 14340 60 225 257 397 486 425
36 4 1993 7 4350 6 4113 -1 4287 -2 4345 -20z" />
		<path d="M3007 23296 c-90 -33 -153 -95 -188 -186 -18 -48 -19 -86 -19 -973 0
-854 1 -926 17 -971 24 -66 91 -139 161 -173 l57 -28 615 0 615 0 61 32 c68
35 102 70 142 147 l27 51 0 940 0 940 -28 57 c-34 70 -107 137 -173 161 -45
16 -102 17 -649 17 -478 -1 -608 -4 -638 -14z m1264 -159 c19 -12 44 -42 57
-67 l22 -44 0 -892 0 -891 -23 -43 c-16 -30 -37 -51 -67 -67 l-43 -23 -566 0
-567 0 -44 23 c-25 12 -55 37 -68 56 l-22 34 2 921 3 921 22 31 c47 65 27 64
674 64 l586 0 34 -23z" />
		<path d="M5317 23295 c-77 -29 -146 -94 -185 -175 -16 -32 -17 -115 -17 -980
l0 -945 28 -57 c32 -65 89 -121 156 -152 45 -21 54 -21 661 -21 609 0 615 0
662 22 66 30 132 95 159 156 l24 52 0 945 0 945 -25 50 c-33 68 -99 129 -166
154 -53 20 -72 21 -657 20 -491 0 -609 -3 -640 -14z m1264 -158 c18 -12 44
-38 56 -56 l23 -34 -2 -916 -3 -916 -24 -34 c-13 -18 -42 -42 -65 -52 -38 -17
-77 -19 -606 -19 l-566 0 -44 23 c-30 14 -53 36 -67 62 l-23 40 3 912 c2 907
2 912 23 940 11 15 36 38 54 51 l33 22 587 0 587 0 34 -23z" />
		<path d="M7605 23282 c-60 -29 -121 -86 -149 -140 -34 -67 -37 -143 -34 -1047
l3 -890 26 -55 c36 -77 68 -111 141 -151 l63 -34 594 -3 c657 -3 654 -3 746
60 28 20 61 57 83 92 l37 59 3 950 2 949 -23 52 c-32 69 -75 116 -139 152
l-53 29 -620 3 -620 2 -60 -28z m1282 -138 c19 -9 45 -33 59 -53 l24 -36 0
-913 c0 -657 -3 -919 -11 -935 -6 -12 -21 -33 -33 -45 -47 -52 -47 -52 -645
-52 -334 0 -570 4 -591 10 -47 13 -99 68 -111 116 -4 22 -9 433 -9 914 l0 876
23 44 c12 25 37 55 56 67 l34 23 584 0 c522 0 589 -2 620 -16z" />
		<path d="M9934 23290 c-67 -27 -123 -76 -159 -141 l-30 -54 -3 -939 c-2 -840
-1 -945 14 -988 21 -65 99 -149 166 -179 l53 -24 610 0 c506 0 616 2 645 14
60 25 118 70 150 116 62 90 61 71 58 1071 -3 904 -3 909 -24 955 -30 64 -88
125 -148 157 l-51 27 -615 2 c-591 2 -617 1 -666 -17z m1266 -145 c16 -8 42
-32 57 -52 l28 -36 3 -907 2 -906 -23 -44 c-16 -30 -37 -51 -67 -67 l-43 -23
-566 0 -567 0 -44 23 c-25 12 -55 37 -67 56 l-23 34 0 908 c0 500 4 918 9 931
11 28 59 77 86 89 11 4 282 8 603 8 499 1 587 -1 612 -14z" />
		<path d="M2580 20755 l0 -145 4535 0 4535 0 0 145 0 145 -4535 0 -4535 0 0
-145z" />
		<path d="M3019 19667 c-58 -16 -131 -69 -164 -119 -57 -86 -55 -44 -55 -1044
0 -908 0 -924 21 -978 25 -67 91 -139 157 -169 47 -22 51 -22 672 -22 l625 0
51 27 c60 32 118 93 148 157 21 46 21 47 21 986 l0 940 -29 58 c-34 67 -89
120 -155 151 -45 21 -56 21 -646 23 -452 1 -611 -1 -646 -10z m1246 -160 c26
-14 48 -37 63 -67 l22 -44 0 -891 c0 -846 -1 -892 -19 -931 -10 -23 -34 -52
-52 -65 l-34 -24 -591 -3 -590 -2 -34 23 c-19 12 -45 38 -57 56 l-23 34 0 909
c0 979 -2 935 52 985 12 12 34 26 48 32 16 6 242 10 600 10 l575 1 40 -23z" />
		<path d="M5345 19671 c-89 -23 -178 -101 -211 -187 -18 -47 -19 -88 -19 -979
0 -891 1 -932 19 -979 24 -63 86 -130 151 -164 l50 -27 625 0 625 0 45 22 c59
29 124 94 152 152 l23 46 3 925 c3 855 2 929 -14 984 -22 71 -85 146 -158 184
l-51 27 -605 2 c-333 1 -618 -2 -635 -6z m1242 -167 c15 -11 38 -36 51 -54
l22 -33 0 -912 0 -912 -23 -34 c-12 -18 -38 -44 -56 -56 l-34 -23 -587 0 -587
0 -33 23 c-18 12 -43 35 -54 50 -21 28 -21 31 -21 951 l0 923 27 35 c54 71 26
68 680 65 578 -2 587 -2 615 -23z" />
		<path d="M7650 19667 c-93 -26 -153 -78 -197 -172 l-28 -60 0 -930 0 -930 29
-63 c32 -70 86 -124 155 -156 45 -21 57 -21 645 -24 672 -3 664 -4 754 67 34
27 60 59 81 102 l31 62 0 942 0 942 -31 61 c-33 66 -77 109 -149 145 -45 22
-47 22 -645 24 -453 2 -611 -1 -645 -10z m1241 -160 c18 -12 44 -38 56 -56
l23 -34 -2 -923 -3 -923 -34 -35 c-18 -19 -45 -40 -60 -46 -18 -7 -206 -10
-611 -8 l-585 3 -33 23 c-72 52 -67 -16 -67 997 0 892 0 911 20 943 11 19 38
45 60 58 l40 24 581 0 581 0 34 -23z" />
		<path d="M9948 19664 c-56 -17 -149 -99 -181 -158 l-22 -41 -3 -942 c-2 -932
-2 -942 18 -997 26 -67 92 -139 158 -169 47 -22 51 -22 667 -22 612 0 621 0
666 21 67 31 124 87 156 152 l28 57 3 895 c3 651 0 914 -8 963 -20 115 -102
209 -212 242 -74 22 -1198 21 -1270 -1z m1257 -157 c26 -14 48 -37 63 -67 l22
-44 0 -891 c0 -846 -1 -892 -19 -931 -10 -23 -34 -52 -52 -65 l-34 -24 -591
-3 -590 -2 -34 23 c-19 12 -45 38 -57 56 l-23 34 0 909 c0 979 -2 935 52 985
12 12 34 26 48 32 16 6 242 10 600 10 l575 1 40 -23z" />
		<path d="M2580 17140 l0 -140 4535 0 4535 0 0 140 0 140 -4535 0 -4535 0 0
-140z" />
		<path d="M2993 16064 c-57 -21 -128 -86 -161 -148 l-27 -51 0 -955 0 -955 27
-51 c28 -53 85 -111 140 -141 31 -17 77 -18 661 -21 l629 -3 52 24 c68 31 122
86 155 156 l26 56 0 935 0 935 -26 56 c-31 65 -82 119 -142 151 l-42 23 -625
2 c-533 1 -631 0 -667 -13z m1238 -135 c43 -15 88 -55 105 -96 12 -27 14 -189
14 -922 0 -603 -3 -899 -11 -918 -15 -42 -68 -92 -109 -103 -21 -6 -256 -10
-590 -10 -520 0 -558 2 -596 19 -23 10 -52 34 -65 52 l-24 34 0 925 0 925 24
34 c13 18 42 42 65 52 38 17 76 19 597 19 389 0 566 -3 590 -11z" />
		<path d="M5293 16056 c-64 -30 -122 -87 -154 -152 l-24 -49 0 -940 c0 -757 3
-947 13 -978 24 -66 85 -132 154 -166 l63 -31 625 2 c580 3 628 4 661 21 62
31 116 85 146 145 l28 57 0 945 c0 940 0 945 -21 991 -31 67 -78 114 -146 149
l-61 30 -616 0 -616 0 -52 -24z m1294 -148 c78 -51 73 13 73 -998 0 -1011 5
-947 -73 -998 l-41 -27 -585 0 -586 0 -35 22 c-20 12 -46 40 -58 61 l-22 40 0
903 c0 897 0 904 21 938 26 43 56 68 94 80 18 6 268 9 601 8 l570 -2 41 -27z" />
		<path d="M7640 16071 c-79 -24 -165 -106 -196 -186 -18 -48 -19 -87 -19 -980
l0 -930 26 -56 c31 -65 82 -119 142 -151 l42 -23 629 -3 630 -3 52 26 c29 14
73 48 98 76 80 90 76 27 76 1069 0 1062 6 985 -89 1081 -93 93 -60 89 -760 88
-333 0 -617 -4 -631 -8z m1240 -153 c25 -13 55 -38 67 -57 l23 -34 0 -917 0
-917 -23 -34 c-12 -19 -42 -44 -67 -56 l-44 -23 -558 0 c-480 0 -564 2 -595
15 -50 21 -72 42 -94 90 -18 38 -19 88 -19 923 0 772 2 887 15 919 21 50 42
72 90 94 37 17 78 19 600 19 l561 0 44 -22z" />
		<path d="M9933 16064 c-57 -21 -128 -86 -161 -148 l-27 -51 0 -955 0 -955 27
-51 c28 -53 85 -111 140 -141 31 -17 77 -18 661 -21 l629 -3 52 24 c66 31 121
87 155 157 l26 55 0 935 0 935 -26 56 c-29 62 -84 120 -144 153 -40 21 -46 21
-665 23 -533 1 -631 0 -667 -13z m1252 -143 c46 -21 79 -54 94 -94 8 -19 11
-312 11 -918 0 -733 -2 -895 -14 -922 -17 -41 -62 -81 -105 -96 -24 -8 -201
-11 -587 -11 -624 0 -611 -1 -665 73 l-29 40 0 915 c0 900 0 915 20 947 22 36
58 63 99 75 14 5 276 9 581 9 519 1 558 -1 595 -18z" />
		<path d="M2587 13663 c-4 -3 -7 -69 -7 -145 l0 -138 4535 0 4535 0 0 145 0
145 -4528 0 c-2491 0 -4532 -3 -4535 -7z" />
		<path d="M2972 12419 c-73 -36 -124 -92 -152 -167 -20 -53 -20 -71 -18 -990
l3 -937 27 -50 c34 -65 101 -127 164 -151 46 -18 83 -19 654 -19 l605 0 55 26
c77 36 111 68 151 141 l34 63 0 940 0 940 -24 53 c-30 66 -113 144 -177 166
-42 14 -123 16 -654 16 l-607 0 -61 -31z m1299 -142 c19 -12 44 -42 57 -67
l22 -44 0 -890 c0 -879 0 -890 -21 -932 -12 -26 -36 -53 -57 -66 l-37 -23
-575 -3 -575 -3 -45 23 c-25 13 -55 38 -68 57 l-22 34 2 921 3 921 22 31 c47
65 27 64 674 64 l586 0 34 -23z" />
		<path d="M5327 12440 c-50 -15 -123 -69 -153 -112 -62 -88 -59 -27 -59 -1053
0 -933 0 -940 21 -985 43 -93 112 -150 213 -176 51 -12 147 -14 638 -12 531 3
582 5 625 22 67 25 140 94 169 158 l24 53 3 924 c3 1031 5 987 -66 1078 -22
27 -62 61 -93 78 l-54 30 -620 2 c-341 1 -633 -2 -648 -7z m1253 -161 c21 -12
47 -38 59 -59 l21 -38 -2 -914 -3 -915 -27 -35 c-53 -70 -45 -69 -683 -66
-643 3 -612 -1 -660 82 l-25 43 2 911 c3 906 3 911 24 939 11 15 36 38 54 51
l33 22 585 0 c577 0 585 0 622 -21z" />
		<path d="M7635 12437 c-86 -34 -150 -93 -188 -175 l-22 -47 0 -935 0 -935 26
-56 c33 -71 87 -125 158 -158 l56 -26 610 0 610 0 53 24 c67 30 145 114 166
179 15 43 16 149 14 988 -3 884 -4 941 -21 975 -31 63 -85 116 -149 148 l-61
31 -611 -1 c-443 0 -619 -4 -641 -12z m1252 -153 c19 -9 45 -33 59 -53 l24
-36 0 -916 0 -916 -22 -33 c-13 -18 -36 -43 -51 -54 -28 -21 -38 -21 -598 -24
-372 -2 -583 1 -608 8 -54 14 -108 76 -116 132 -3 24 -5 437 -3 918 3 862 3
876 24 910 11 19 35 45 54 57 l33 23 584 0 c522 0 589 -2 620 -16z" />
		<path d="M9954 12439 c-85 -24 -180 -121 -204 -207 -6 -24 -10 -360 -10 -953
0 -790 2 -922 15 -967 20 -68 96 -151 167 -183 l53 -24 610 0 610 0 67 33 c75
37 110 72 147 152 l26 55 0 935 0 935 -24 53 c-30 66 -113 144 -177 166 -42
14 -121 16 -648 15 -331 0 -615 -5 -632 -10z m1246 -154 c16 -8 42 -32 57 -52
l28 -36 3 -891 c1 -490 0 -906 -3 -924 -7 -40 -59 -101 -102 -118 -26 -11
-145 -14 -596 -14 l-563 0 -44 23 c-25 12 -55 37 -68 56 l-22 34 2 921 3 921
22 31 c47 65 27 64 671 64 499 0 587 -2 612 -15z" />
		<path d="M2582 9878 l3 -143 4533 -3 4532 -2 0 145 0 145 -4535 0 -4536 0 3
-142z" />
		<path d="M13993 22290 c-173 -36 -282 -210 -239 -380 74 -289 466 -323 589
-51 16 35 21 66 21 126 0 71 -4 87 -34 143 -18 35 -47 75 -64 89 -71 60 -186
91 -273 73z" />
		<path d="M15032 22290 c-57 -12 -138 -57 -169 -95 -111 -130 -102 -331 19
-440 176 -159 453 -78 513 151 38 144 -35 299 -169 359 -60 27 -135 37 -194
25z" />
		<path d="M16072 22290 c-236 -49 -330 -338 -167 -518 20 -23 62 -54 93 -69 76
-37 193 -40 262 -6 73 36 117 79 151 148 26 54 31 74 31 138 -1 95 -26 157
-90 220 -76 75 -180 107 -280 87z" />
		<path d="M13944 21340 c-72 -29 -138 -89 -170 -158 -22 -46 -27 -71 -28 -132
0 -99 28 -163 100 -229 69 -63 130 -84 227 -79 84 4 146 30 202 86 91 90 118
240 62 354 -31 62 -84 116 -149 149 -62 32 -176 36 -244 9z" />
		<path d="M14999 21347 c-88 -33 -156 -95 -192 -176 -30 -67 -29 -179 2 -249
30 -66 113 -144 177 -166 61 -20 157 -21 217 0 57 19 141 92 168 146 81 159
18 346 -144 430 -53 27 -175 35 -228 15z" />
		<path d="M16050 21351 c-289 -95 -307 -480 -28 -596 49 -20 161 -19 222 1 70
24 150 102 176 172 42 112 22 242 -49 324 -60 68 -130 101 -221 105 -41 1 -86
-1 -100 -6z" />
		<path d="M13990 20416 c-30 -7 -70 -20 -87 -29 -79 -42 -144 -140 -158 -238
-9 -61 16 -157 56 -215 136 -198 442 -167 542 55 31 69 29 178 -5 252 -62 136
-203 206 -348 175z" />
		<path d="M15033 20420 c-95 -19 -171 -78 -215 -168 -29 -58 -33 -76 -32 -142
0 -92 33 -169 96 -225 65 -59 120 -80 213 -80 101 0 161 26 227 96 144 153 93
409 -97 494 -59 27 -133 36 -192 25z" />
		<path d="M16078 20420 c-150 -26 -253 -152 -253 -310 1 -326 441 -428 585
-136 27 55 32 75 32 140 -1 92 -25 152 -85 214 -52 54 -96 77 -172 91 -32 6
-59 10 -59 10 -1 -1 -22 -5 -48 -9z" />
		<path d="M14689 18184 c218 -217 401 -395 406 -395 6 0 188 178 406 395 l395
396 -801 0 -802 0 396 -396z" />
		<path d="M13895 17266 c-70 -22 -122 -54 -174 -107 -87 -89 -129 -213 -118
-352 11 -144 69 -251 176 -324 113 -78 28 -73 1316 -73 1284 0 1201 -4 1313
71 139 92 207 282 168 468 -8 40 -25 92 -37 117 -34 66 -114 143 -189 178
l-65 31 -1175 2 c-930 1 -1183 -1 -1215 -11z m2341 -288 c84 -46 86 -221 3
-263 -24 -13 -187 -15 -1149 -15 -1039 0 -1123 1 -1147 17 -33 22 -53 70 -53
128 0 82 37 136 101 148 13 2 517 4 1119 3 1012 -1 1097 -2 1126 -18z" />
		<path d="M14830 14280 l0 -850 265 0 265 0 0 850 0 850 -265 0 -265 0 0 -850z
m335 0 l0 -655 -70 -3 -70 -3 2 658 c2 362 3 659 3 661 0 2 30 2 68 0 l67 -3
0 -655z" />
		<path d="M14685 7240 c220 -220 402 -400 405 -400 3 0 187 180 410 400 l405
399 -810 0 -810 1 400 -400z" />
		<path d="M2420 7154 c-90 -24 -210 -89 -277 -149 -69 -62 -141 -163 -172 -242
-52 -133 -52 -125 -48 -1263 2 -981 4 -1059 21 -1115 70 -236 247 -408 482
-469 56 -15 494 -16 4691 -16 4117 0 4635 2 4688 15 226 58 403 225 481 455
18 52 19 106 19 1165 0 1059 -1 1113 -19 1165 -39 116 -87 192 -175 280 -86
85 -134 115 -260 164 l-56 21 -4660 2 c-4082 2 -4667 0 -4715 -13z m9365 -293
c84 -34 184 -134 214 -214 l21 -59 0 -1054 c0 -1053 0 -1054 -22 -1111 -29
-80 -130 -180 -213 -214 l-60 -24 -4565 -3 c-3297 -2 -4583 0 -4630 8 -127 22
-233 103 -289 220 l-26 55 0 1070 0 1070 27 57 c51 108 165 199 276 218 26 4
2108 7 4627 6 l4580 -1 60 -24z" />
		<path d="M14065 6554 c-200 -49 -361 -197 -432 -399 l-28 -80 0 -540 0 -540
28 -78 c56 -159 162 -282 300 -351 141 -69 98 -67 1190 -64 l982 3 75 27 c190
70 331 222 387 418 16 59 18 111 18 585 0 580 0 581 -70 714 -70 132 -190 236
-335 289 l-75 27 -990 2 c-838 1 -999 -1 -1050 -13z m2029 -294 c72 -27 135
-85 171 -156 l30 -59 0 -510 0 -510 -25 -50 c-35 -72 -105 -138 -173 -164 -58
-21 -61 -21 -1002 -21 -925 0 -945 0 -999 20 -72 27 -139 88 -173 158 l-28 57
0 510 c0 500 0 511 21 556 39 85 117 153 204 180 14 4 451 8 972 8 929 1 948
1 1002 -19z" />
	</g>
</svg>
